<?xml version="1.0" standalone="no"?>
<!DOCTYPE svg PUBLIC "-//W3C//DTD SVG 20010904//EN"
 "http://www.w3.org/TR/2001/REC-SVG-20010904/DTD/svg10.dtd">
<svg version="1.0" xmlns="http://www.w3.org/2000/svg"
 width="300.000000pt" height="314.000000pt" viewBox="0 0 300.000000 314.000000"
 preserveAspectRatio="xMidYMid meet">
<metadata>
Created by potrace 1.10, written by Peter Selinger 2001-2011
</metadata>
<g transform="translate(0.000000,314.000000) scale(0.100000,-0.100000)"
fill="#000000" stroke="none">
<path d="M1405 2995 c-16 -8 -51 -17 -77 -20 -32 -4 -57 -15 -77 -34 -16 -15
-50 -36 -75 -45 -65 -25 -101 -62 -109 -113 -8 -51 -27 -63 -94 -63 -33 0 -64
-8 -93 -24 -59 -32 -94 -49 -158 -77 -54 -23 -112 -77 -112 -104 0 -8 -20 -37
-44 -64 -24 -27 -50 -65 -56 -83 -10 -26 -24 -39 -62 -56 -40 -18 -53 -30 -69
-67 -14 -32 -30 -49 -57 -62 -98 -47 -156 -150 -157 -280 0 -53 -4 -66 -27
-90 -15 -15 -32 -41 -37 -56 -16 -41 -13 -196 3 -251 33 -109 120 -196 197
-196 29 0 41 -8 72 -44 46 -56 149 -109 254 -131 43 -9 101 -26 128 -37 28
-12 63 -24 79 -27 42 -9 40 -22 -7 -56 -66 -48 -103 -105 -111 -168 -6 -48
-12 -58 -47 -86 -47 -38 -50 -66 -9 -89 16 -9 30 -25 30 -34 0 -25 28 -48 57
-48 15 0 47 12 71 26 37 22 49 25 64 15 28 -17 66 -13 78 9 6 10 8 37 4 58 -7
42 4 71 39 109 36 40 42 29 42 -79 0 -94 2 -107 27 -149 26 -45 99 -113 145
-138 21 -11 22 -16 16 -90 -5 -73 -4 -84 21 -131 16 -30 24 -59 21 -70 -4 -14
4 -28 27 -49 30 -27 40 -30 100 -31 57 0 69 3 78 20 6 11 17 20 25 20 27 0 63
22 74 47 8 18 7 32 -5 61 -31 72 -34 93 -19 128 19 45 40 52 201 64 179 14
176 15 169 -98 -6 -77 -4 -91 14 -119 13 -20 29 -33 41 -33 12 0 34 -7 50 -15
27 -14 35 -14 82 3 100 34 104 40 111 145 7 116 -5 166 -50 210 l-34 35 26 42
c15 23 31 65 37 94 10 45 8 62 -14 139 -14 48 -22 90 -17 92 17 11 39 -9 39
-34 0 -59 52 -90 92 -54 18 16 21 16 47 0 41 -24 56 -21 95 15 18 18 43 40 55
48 30 22 37 64 13 86 -10 11 -27 32 -37 47 -10 15 -39 40 -64 54 -67 39 -68
46 -2 59 76 16 113 36 175 93 28 26 72 55 97 64 25 10 61 33 79 52 19 19 40
35 47 35 26 0 81 62 108 121 26 58 27 69 23 168 -4 93 -8 112 -32 153 -15 25
-33 52 -41 58 -8 6 -19 36 -25 66 -13 63 -56 119 -98 129 -41 9 -92 60 -92 92
0 41 -38 110 -76 139 -18 14 -53 32 -76 38 -29 9 -47 21 -56 39 -18 38 -77 85
-120 97 -32 8 -44 19 -66 60 -57 105 -113 140 -224 140 -43 0 -60 5 -90 29
-20 16 -54 32 -74 35 -34 6 -38 10 -38 37 0 68 -57 149 -105 149 -15 0 -45 13
-68 29 -23 15 -56 36 -74 45 -39 20 -136 20 -178 1z m185 -42 c19 -12 46 -30
60 -40 14 -10 43 -20 65 -23 31 -4 44 -12 62 -39 26 -39 32 -115 9 -128 -21
-13 -31 -53 -12 -53 9 0 18 11 22 24 5 22 8 23 50 15 52 -10 102 -37 109 -59
4 -12 22 -15 89 -15 103 0 123 -12 183 -111 39 -64 45 -70 98 -87 60 -20 100
-65 89 -99 -4 -14 0 -18 19 -18 98 0 187 -85 187 -177 0 -30 5 -40 23 -48 14
-6 22 -18 21 -33 -1 -23 4 -25 47 -22 52 3 109 -75 109 -149 0 -12 12 -34 26
-48 34 -34 66 -105 54 -117 -14 -14 -12 -37 5 -56 13 -15 14 -28 5 -82 -15
-97 -72 -188 -118 -188 -7 0 -25 -14 -39 -30 -14 -17 -43 -40 -64 -51 -34 -17
-40 -18 -45 -4 -9 22 -22 19 -29 -7 -21 -71 -150 -150 -262 -163 -60 -7 -63
-6 -71 16 -9 23 -9 23 -20 3 -13 -24 -54 -54 -82 -59 -10 -2 -28 -8 -39 -14
-24 -13 -111 -15 -111 -2 0 5 6 12 13 14 7 4 6 6 -4 6 -9 1 -19 -6 -22 -13 -8
-20 -65 -49 -83 -42 -8 3 -14 1 -14 -4 0 -6 -22 -10 -49 -10 -46 0 -49 -2 -47
-24 1 -30 36 -44 36 -15 0 10 7 19 15 19 9 0 12 -6 8 -17 -5 -15 -3 -15 11 2
10 11 15 15 12 9 -3 -7 1 -14 9 -18 8 -3 14 -2 14 2 -3 21 4 28 28 27 18 0 28
5 28 15 0 8 8 16 18 18 9 2 17 -2 17 -8 0 -7 7 -5 16 5 12 12 19 13 30 4 10
-8 14 -8 14 0 0 6 7 11 15 11 13 0 14 -4 5 -20 -8 -14 -8 -20 0 -20 6 0 9 -4
6 -9 -3 -4 2 -17 10 -27 15 -19 15 -19 6 0 -6 12 -6 29 -2 42 5 12 6 24 3 27
-3 4 8 9 23 13 16 4 50 18 77 32 l47 25 20 -21 c11 -11 47 -35 80 -53 74 -39
137 -117 120 -149 -11 -21 -54 -27 -65 -10 -8 13 -35 13 -35 -1 0 -6 9 -13 20
-16 23 -6 24 -8 9 -35 -8 -15 -17 -18 -37 -13 -15 4 -35 14 -45 22 -16 15 -19
14 -42 -7 -31 -29 -59 -21 -52 16 7 36 -26 64 -75 64 -43 0 -47 -10 -23 -65
25 -62 37 -146 27 -192 -14 -60 -62 -140 -73 -122 -8 12 -11 12 -19 -1 -7 -12
-3 -17 16 -22 37 -10 64 -37 86 -86 16 -36 18 -55 12 -130 -6 -74 -11 -90 -31
-109 -28 -27 -46 -29 -63 -8 -7 8 -19 15 -28 15 -13 0 -12 -3 3 -20 16 -18 16
-20 1 -26 -9 -4 -25 1 -35 10 -10 9 -29 16 -44 16 -40 0 -50 29 -43 118 4 42
9 78 11 80 2 3 11 -3 20 -12 21 -20 36 -21 29 -1 -4 8 -11 15 -18 15 -6 0 -4
5 4 10 8 5 11 10 5 10 -5 0 -3 5 5 10 13 9 13 10 0 10 -9 0 -21 -5 -28 -12 -9
-9 -20 -7 -50 10 -36 20 -43 20 -177 11 -77 -6 -154 -17 -172 -24 -66 -28 -85
-112 -44 -192 16 -32 18 -44 8 -56 -15 -20 -65 -39 -79 -31 -5 3 -12 -3 -15
-15 -6 -24 -38 -28 -47 -6 -3 8 -3 22 1 31 4 12 2 15 -8 12 -8 -2 -15 -17 -17
-32 -3 -21 -8 -27 -25 -24 -18 2 -22 10 -22 36 0 21 -6 37 -18 43 -45 26 -73
147 -47 213 8 23 12 24 42 15 45 -13 70 -11 65 4 -2 6 3 18 12 25 9 8 11 11 4
8 -6 -4 -32 -9 -58 -12 -36 -4 -54 0 -83 17 -69 41 -122 90 -149 137 -26 44
-28 55 -28 162 -1 130 -6 138 -65 98 -54 -37 -82 -93 -74 -150 6 -46 5 -48
-20 -48 -14 0 -29 8 -35 18 -8 14 -13 15 -28 4 -81 -56 -110 -65 -132 -38 -13
16 -5 42 22 69 27 27 12 35 -16 9 -26 -24 -52 -28 -63 -10 -4 7 8 24 30 43 31
26 40 42 51 93 20 97 71 154 191 215 73 36 94 41 94 23 0 -9 -8 -16 -17 -17
-15 0 -15 -2 2 -8 14 -6 22 -4 27 8 5 12 7 13 7 2 1 -12 4 -12 13 -3 15 15 42
16 33 1 -4 -6 0 -9 11 -7 13 2 18 -2 16 -12 -3 -11 1 -11 16 3 13 12 28 15 50
11 18 -4 32 -10 32 -14 0 -14 74 -37 115 -36 59 2 54 19 -7 24 -54 4 -118 27
-118 43 0 5 -10 9 -22 10 -22 0 -22 1 -3 9 15 7 16 9 4 9 -9 1 -22 -6 -30 -15
-12 -14 -14 -14 -26 3 -10 13 -16 15 -21 6 -6 -10 -17 -10 -47 -1 -22 6 -43
11 -47 10 -5 -1 -8 2 -8 8 0 5 -7 10 -15 10 -9 0 -12 -6 -9 -15 7 -16 -1 -18
-76 -15 -62 1 -139 25 -184 55 -40 27 -51 31 -40 14 4 -8 -4 -9 -27 -4 -111
22 -218 81 -280 153 -27 31 -40 40 -56 36 -35 -9 -90 15 -124 54 -50 57 -67
106 -75 219 -6 97 -6 103 19 145 14 24 34 51 45 61 17 16 19 23 10 54 -11 41
12 152 41 197 20 30 107 96 126 96 7 0 20 20 29 45 13 34 27 50 62 69 42 24
61 17 32 -12 -6 -6 -9 -15 -5 -19 11 -10 29 12 32 39 6 45 43 115 78 144 20
17 38 42 41 60 10 47 70 96 144 118 34 11 27 -10 -18 -53 -22 -21 -40 -45 -40
-54 0 -25 8 -21 25 13 9 17 27 35 39 40 14 5 29 23 35 42 6 18 26 43 44 55 43
30 142 49 174 34 19 -9 23 -8 23 7 0 9 7 26 15 36 8 11 15 31 15 44 0 32 51
79 103 94 23 6 55 24 71 40 32 32 64 43 103 35 18 -3 36 2 51 14 34 27 125 23
172 -8z"/>
<path d="M1126 2715 c5 -11 2 -13 -10 -9 -9 3 -16 4 -16 1 0 -16 31 -13 40 3
8 16 8 20 -4 20 -10 0 -13 -6 -10 -15z"/>
<path d="M1010 2648 c0 -12 18 -18 34 -12 25 9 19 22 -9 20 -14 0 -25 -4 -25
-8z"/>
<path d="M1403 2635 c-17 -12 -28 -13 -41 -6 -14 8 -22 5 -35 -10 -16 -18 -16
-19 1 -19 9 0 -10 -16 -43 -35 -33 -19 -54 -35 -47 -35 9 0 10 -5 4 -17 -5
-10 -8 -23 -5 -29 2 -6 -8 -16 -22 -22 -14 -7 -25 -8 -25 -2 0 12 -29 2 -54
-19 -18 -15 -19 -15 -13 2 6 16 4 16 -21 2 -39 -21 -57 -37 -65 -57 -4 -12 -2
-15 8 -11 8 3 13 9 10 14 -3 4 3 13 14 18 31 17 34 13 12 -16 -12 -14 -19 -29
-15 -32 3 -3 14 6 25 21 16 22 69 58 86 58 2 0 -4 -11 -13 -25 l-17 -26 26 12
c14 6 28 20 30 30 4 13 11 17 24 13 13 -4 15 -3 4 4 -19 14 6 21 41 11 18 -5
28 -3 31 5 6 14 -28 48 -37 39 -3 -4 -6 1 -6 10 0 17 36 47 57 47 7 0 23 11
36 24 31 31 96 49 144 40 41 -8 93 -50 97 -79 2 -15 9 -19 30 -17 36 5 57 -14
50 -43 -5 -20 -1 -23 34 -29 22 -3 54 -18 72 -32 17 -15 34 -24 37 -20 12 12
-36 46 -80 58 -37 10 -44 15 -44 36 0 27 -15 40 -55 48 -14 4 -28 14 -31 24
-13 51 -159 97 -204 65z"/>
<path d="M1010 2605 c-10 -13 -15 -13 -21 -3 -4 7 -11 9 -14 6 -4 -4 -1 -13 6
-21 11 -12 16 -11 33 4 11 11 17 21 14 24 -3 3 -11 -2 -18 -10z"/>
<path d="M729 2443 c-8 -9 -9 -14 -2 -10 6 4 14 1 16 -5 3 -7 6 -3 6 10 1 26
-2 27 -20 5z"/>
<path d="M630 2251 c-20 -6 -22 -8 -8 -13 9 -4 22 -1 28 8 7 8 11 14 9 13 -2
-1 -15 -4 -29 -8z"/>
<path d="M490 2212 c-13 -14 -12 -15 3 -9 9 3 17 2 17 -4 0 -6 5 -7 10 -4 6 3
10 11 10 16 0 6 -4 8 -9 5 -5 -4 -11 -2 -13 3 -1 5 -10 2 -18 -7z"/>
<path d="M915 2184 c-32 -8 -77 -25 -100 -39 -100 -58 -180 -186 -200 -320
l-12 -80 -7 55 c-9 76 -2 196 14 215 9 11 10 15 0 15 -8 0 -10 13 -6 43 4 37
3 35 -9 -13 -25 -95 -22 -281 6 -315 4 -6 8 -20 8 -30 0 -38 7 -60 28 -100 26
-49 116 -140 154 -156 38 -15 27 -30 -13 -18 -67 19 -143 66 -204 126 -68 67
-87 79 -59 37 23 -35 64 -76 98 -98 23 -14 26 -20 16 -32 -7 -9 -8 -14 -1 -14
6 0 13 4 17 10 3 5 12 7 21 3 12 -4 12 -8 2 -22 -11 -14 -11 -14 3 -3 13 10
22 9 45 -3 16 -8 38 -15 49 -15 20 -1 20 -1 1 -15 -11 -8 -27 -15 -36 -15 -9
0 -23 -13 -33 -29 -20 -33 -21 -41 -7 -41 6 0 10 6 10 13 0 12 96 66 143 81
23 7 22 1 -7 -37 -25 -34 -30 -67 -11 -67 6 0 12 6 12 13 0 25 51 93 91 120
58 41 119 56 199 51 86 -6 122 -18 169 -55 44 -35 47 -35 38 -7 -7 22 -6 22
17 5 45 -32 58 -37 64 -27 7 12 -30 36 -97 61 -91 35 -111 39 -188 39 -49 0
-70 3 -60 9 8 6 17 8 21 5 4 -2 10 0 14 5 3 6 13 7 21 4 9 -3 20 0 25 8 7 11
11 12 17 1 7 -10 11 -10 22 3 7 9 20 13 29 10 13 -5 13 -3 -1 12 -14 13 -20
14 -30 5 -16 -16 -31 -15 -21 1 4 6 -5 4 -19 -5 -14 -10 -37 -19 -50 -22 -12
-2 -35 -9 -50 -15 -15 -5 -29 -7 -32 -3 -7 12 -9 56 -3 72 3 8 13 40 22 70 17
55 55 116 84 135 27 17 61 24 58 12 -1 -6 17 -15 39 -20 36 -8 44 -7 63 12 11
11 21 26 21 31 0 6 4 10 9 10 5 0 8 8 7 18 -3 44 107 14 116 -32 13 -65 9
-184 -8 -227 -17 -47 -63 -97 -73 -81 -3 5 -30 24 -60 41 -38 23 -57 29 -64
22 -8 -8 -6 -11 6 -11 9 0 17 -4 17 -10 0 -5 13 -16 28 -24 16 -8 40 -26 53
-40 31 -33 42 -33 73 7 15 17 31 38 37 45 5 6 7 12 3 12 -3 0 -1 7 6 15 6 8 9
19 5 25 -3 5 -2 10 3 10 16 0 24 33 10 42 -8 5 -9 8 -2 8 15 0 23 54 12 74 -5
10 -5 16 0 16 6 0 8 17 5 38 -7 55 -9 65 -20 92 -39 93 -60 125 -115 171 -138
114 -277 151 -433 113z m296 -47 c93 -44 172 -113 205 -178 26 -53 32 -86 10
-56 -18 23 -79 40 -116 32 -25 -5 -34 -1 -61 30 -55 62 -114 81 -151 48 -24
-22 -23 -50 6 -99 l23 -41 -36 -40 c-57 -62 -81 -100 -87 -135 -3 -18 -11 -49
-18 -68 -7 -19 -11 -53 -9 -75 4 -39 3 -41 -51 -77 l-56 -36 -48 24 c-83 41
-181 146 -168 179 3 9 2 14 -3 10 -5 -3 -12 12 -16 33 -29 176 49 355 193 439
68 40 127 53 222 50 74 -3 95 -8 161 -40z m-27 -141 c38 -16 78 -64 95 -115 6
-19 11 -35 11 -36 0 -2 -11 -6 -25 -9 -40 -10 -121 36 -145 84 -41 81 -17 110
64 76z m286 -176 c0 -16 -2 -30 -4 -30 -2 0 -6 14 -8 30 -3 17 -1 30 4 30 4 0
8 -13 8 -30z"/>
<path d="M890 1531 c0 -17 15 -19 28 -5 11 12 9 14 -8 14 -11 0 -20 -4 -20 -9z"/>
<path d="M2000 2120 c-25 -10 -58 -22 -73 -29 -43 -17 -129 -109 -159 -171
-75 -150 -58 -314 43 -429 l29 -34 -22 -24 c-27 -29 -4 -31 32 -3 26 21 70 27
70 10 0 -16 19 -12 42 10 32 29 95 27 143 -6 24 -16 40 -21 44 -15 11 17 77
-8 121 -46 21 -18 41 -29 44 -24 4 5 -5 18 -19 29 -21 16 -22 21 -9 26 20 8
59 -2 107 -26 22 -11 42 -17 45 -14 11 11 -15 27 -74 46 -33 10 -54 19 -49 20
6 1 26 3 46 6 78 9 263 91 231 102 -6 2 -25 -6 -41 -17 -16 -12 -35 -21 -43
-21 -8 0 -18 -4 -23 -9 -17 -15 -135 -50 -135 -40 0 6 -6 7 -12 3 -8 -4 -9 -3
-5 2 5 5 14 9 22 9 25 0 207 186 194 199 -8 8 -25 -8 -56 -55 -29 -42 -63 -78
-63 -66 0 2 11 29 24 60 48 108 56 249 17 324 -38 76 -125 146 -224 181 -62
21 -192 22 -247 2z m265 -30 c101 -39 215 -169 215 -245 0 -16 -4 -14 -22 11
-22 32 -66 54 -106 54 -12 0 -23 8 -27 21 -4 11 -20 36 -37 55 -38 43 -77 46
-107 8 -26 -33 -26 -50 -1 -99 21 -42 21 -41 -31 -70 -15 -8 -38 -27 -51 -44
-27 -32 -73 -168 -83 -244 -7 -55 -20 -64 -103 -68 -48 -3 -54 0 -82 31 -17
19 -44 61 -60 94 -63 125 -27 304 85 419 50 52 76 67 148 88 82 24 182 20 262
-11z m2 -112 c11 -13 30 -42 42 -65 17 -34 19 -47 10 -72 -9 -25 -17 -31 -39
-31 -22 0 -34 8 -50 35 -12 19 -23 42 -24 51 -1 9 -7 19 -12 22 -17 13 -15 56
3 69 25 19 47 16 70 -9z m143 -123 c7 -8 18 -15 25 -15 19 0 36 -87 23 -119
-6 -14 -12 -36 -13 -48 -5 -39 -27 -95 -44 -113 -9 -10 -32 -37 -51 -59 -31
-36 -61 -57 -45 -32 3 5 0 13 -7 17 -7 4 -10 4 -6 -1 4 -4 0 -14 -8 -22 -8 -8
-12 -18 -9 -23 8 -12 -26 -22 -39 -10 -7 5 -37 15 -67 21 -30 6 -66 18 -81 25
-15 8 -37 14 -49 14 -12 0 -19 3 -16 7 4 3 23 6 42 5 32 -1 40 5 33 25 -2 4
-14 6 -27 4 -21 -2 -23 0 -18 31 9 58 36 143 49 153 7 5 14 19 16 29 4 21 27
48 34 40 3 -2 11 2 18 11 14 17 51 20 66 5 15 -15 82 -21 90 -8 5 8 1 9 -11 4
-18 -7 -18 -6 -1 13 10 11 22 18 26 16 4 -3 11 6 14 20 7 28 36 34 56 10z"/>
<path d="M2119 1539 c-12 -7 -12 -9 1 -9 13 0 13 -1 0 -10 -18 -11 -7 -25 14
-17 10 4 13 13 10 24 -4 13 2 10 19 -9 18 -19 28 -23 36 -15 13 13 22 6 24
-22 1 -12 5 -17 10 -12 18 18 2 46 -25 46 -31 0 -47 13 -30 24 9 5 3 8 -15 9
-16 0 -36 -4 -44 -9z"/>
<path d="M272 1958 c-16 -16 -15 -28 2 -28 7 0 16 9 19 20 6 23 -3 26 -21 8z"/>
<path d="M296 1925 c-11 -8 -16 -15 -10 -15 5 0 2 -5 -6 -10 -8 -5 -10 -10 -5
-10 6 0 21 12 34 25 25 27 17 33 -13 10z"/>
<path d="M455 1870 c-3 -5 1 -10 9 -10 8 0 18 5 21 10 3 6 -1 10 -9 10 -8 0
-18 -4 -21 -10z"/>
<path d="M410 1824 c-13 -15 -6 -17 24 -5 17 6 17 8 3 14 -8 3 -21 -1 -27 -9z"/>
<path d="M294 1809 c0 -13 4 -14 18 -5 10 6 18 14 18 18 0 4 -8 6 -18 5 -10 0
-18 -8 -18 -18z"/>
<path d="M358 1769 c-15 -16 -15 -18 -1 -23 9 -4 18 -4 21 -1 3 3 -1 5 -8 5
-9 0 -8 5 5 13 10 8 14 16 9 19 -5 3 -17 -3 -26 -13z"/>
<path d="M1565 1729 c-9 -14 0 -22 31 -25 19 -2 24 1 20 12 -3 9 -6 18 -6 20
0 9 -39 3 -45 -7z"/>
<path d="M157 1667 c-3 -7 3 -13 13 -13 10 0 16 6 13 13 -3 7 -9 13 -13 13 -4
0 -10 -6 -13 -13z"/>
<path d="M383 1620 c-39 -35 -42 -43 -9 -29 13 6 29 22 35 35 13 30 13 30 -26
-6z"/>
<path d="M248 1607 c8 -9 11 -21 7 -27 -3 -5 -2 -10 3 -10 20 0 19 27 -1 40
-20 12 -21 12 -9 -3z"/>
<path d="M436 1574 c-9 -23 -8 -24 12 -23 9 0 12 3 5 5 -7 3 -9 12 -6 20 3 8
3 14 0 14 -3 0 -8 -7 -11 -16z"/>
<path d="M1496 1557 c2 -7 -9 -40 -25 -72 -17 -33 -27 -62 -24 -65 3 -3 8 1
10 7 3 7 12 22 22 34 17 21 17 20 17 -28 0 -37 6 -56 22 -73 12 -13 22 -28 22
-32 0 -15 59 -35 90 -30 16 2 41 15 55 28 22 20 25 30 21 60 -4 20 -11 45 -17
56 -11 21 -11 21 -29 -3 -10 -13 -16 -27 -13 -32 3 -5 9 -3 14 4 6 10 9 10 9
2 0 -6 -4 -15 -10 -18 -5 -3 -7 -18 -4 -33 5 -23 1 -30 -21 -40 -21 -10 -32
-10 -53 0 -14 7 -27 18 -29 23 -3 10 66 45 88 45 8 0 8 4 0 14 -12 14 -61 10
-61 -5 0 -5 -7 -6 -15 -3 -8 4 -15 1 -15 -6 0 -6 -5 -8 -11 -5 -6 4 -8 13 -5
21 3 8 1 14 -5 14 -6 0 -9 7 -5 15 3 8 1 15 -4 15 -6 0 -10 5 -10 11 0 5 4 8
9 4 5 -3 22 -7 38 -9 15 -2 43 -7 61 -11 18 -4 32 -4 32 2 0 5 23 20 50 32 28
13 48 27 44 32 -8 14 -27 10 -54 -11 -14 -11 -41 -20 -60 -21 -24 -1 -28 -3
-12 -6 12 -2 22 -8 22 -13 0 -11 -44 -3 -48 9 -2 5 -11 7 -22 4 -10 -3 -27 0
-37 6 -10 6 -13 11 -6 11 13 0 -16 80 -29 80 -4 0 -5 -6 -2 -13z"/>
<path d="M410 1539 c0 -5 11 -9 25 -9 14 0 25 2 25 4 0 2 -11 6 -25 8 -14 3
-25 1 -25 -3z"/>
<path d="M393 1500 c-3 -11 -10 -17 -16 -13 -6 3 -7 1 -3 -6 9 -14 22 -7 36
20 8 13 7 19 -1 19 -6 0 -13 -9 -16 -20z"/>
<path d="M450 1453 c0 -14 2 -15 9 -4 5 7 14 10 20 7 6 -4 11 -2 11 3 0 6 -9
11 -20 11 -12 0 -20 -7 -20 -17z"/>
<path d="M980 1460 c0 -5 -6 -7 -14 -4 -9 3 -17 -3 -21 -15 -3 -12 -11 -21
-16 -21 -5 0 -9 -4 -9 -10 0 -17 30 -11 37 8 4 9 16 25 28 34 11 10 15 17 8
18 -7 0 -13 -4 -13 -10z"/>
<path d="M334 1425 c-1 -14 2 -22 7 -19 11 6 12 44 2 44 -5 0 -9 -11 -9 -25z"/>
<path d="M887 1393 c-3 -5 -2 -15 2 -22 5 -7 11 -9 14 -4 3 5 2 15 -2 22 -5 7
-11 9 -14 4z"/>
<path d="M1434 1368 c-18 -21 -18 -21 0 -15 14 6 17 3 12 -8 -3 -8 -1 -15 4
-15 5 0 8 14 8 30 -1 17 -2 30 -3 30 -1 0 -10 -10 -21 -22z"/>
<path d="M1473 1338 c3 -9 1 -19 -6 -22 -9 -5 -9 -7 1 -12 6 -3 10 -10 7 -15
-4 -5 0 -6 8 -3 8 3 21 -2 30 -11 11 -10 18 -12 22 -4 9 14 -25 38 -45 31 -12
-5 -13 -3 -4 9 9 11 8 17 -4 29 -14 13 -15 12 -9 -2z"/>
<path d="M1747 1313 c-4 -21 -19 -49 -38 -69 -38 -39 -22 -55 18 -18 27 25 57
99 47 116 -11 17 -22 6 -27 -29z"/>
<path d="M854 1316 c-6 -7 -11 -25 -11 -41 0 -27 0 -28 13 -10 8 11 12 25 10
32 -3 7 3 17 12 22 13 8 14 10 2 10 -8 0 -20 -6 -26 -13z"/>
<path d="M770 1275 c-13 -14 -19 -25 -14 -25 5 -1 -1 -9 -14 -20 -12 -10 -18
-21 -13 -24 9 -6 76 83 68 90 -2 2 -14 -7 -27 -21z"/>
<path d="M806 1274 c-8 -21 -8 -24 5 -24 5 0 8 4 5 9 -4 5 -1 11 6 13 8 3 9 6
1 11 -6 4 -14 0 -17 -9z"/>
<path d="M572 1261 c-10 -6 -9 -10 7 -14 12 -3 24 0 28 5 3 6 1 8 -5 4 -5 -3
-12 -2 -14 4 -2 5 -9 6 -16 1z"/>
<path d="M824 1222 c-10 -6 -26 -52 -19 -52 2 0 10 14 19 30 8 17 14 30 13 30
-1 0 -7 -4 -13 -8z"/>
<path d="M1036 994 c-11 -7 -16 -17 -13 -21 4 -4 15 1 24 10 22 21 14 30 -11
11z"/>
<path d="M2019 974 c-16 -17 -18 -23 -7 -19 9 4 19 13 22 21 3 9 11 12 17 8 8
-4 9 -3 5 4 -9 16 -9 16 -37 -14z"/>
<path d="M1250 955 c-9 -11 -10 -15 -1 -15 7 0 19 7 27 15 13 13 13 15 1 15
-8 0 -20 -7 -27 -15z"/>
<path d="M1020 921 c0 -17 18 -21 24 -6 3 9 0 15 -9 15 -8 0 -15 -4 -15 -9z"/>
<path d="M1215 911 c-3 -5 -1 -12 5 -16 5 -3 10 -1 10 5 0 7 7 10 15 6 8 -3
15 -1 15 4 0 13 -37 13 -45 1z"/>
<path d="M1410 635 l-25 -14 28 -1 c17 0 27 5 27 15 0 18 1 18 -30 0z"/>
<path d="M1698 614 c-28 -15 -37 -34 -17 -34 5 0 7 -4 4 -10 -3 -5 -1 -10 6
-10 14 0 69 49 69 62 0 13 -32 9 -62 -8z"/>
<path d="M1900 495 c-13 -14 -20 -25 -15 -25 7 0 45 39 45 47 0 7 -8 2 -30
-22z"/>
<path d="M1638 493 c-10 -2 -18 -11 -18 -19 0 -12 4 -13 23 -2 12 7 26 11 30
10 5 -1 6 2 2 8 -6 10 -9 11 -37 3z"/>
</g>
</svg>
